<mxfile host="app.diagrams.net" agent="Mozilla/5.0 (Windows NT 10.0; Win64; x64; rv:133.0) Gecko/20100101 Firefox/133.0" version="24.9.3">
  <diagram name="Page-1" id="12Xr5EPKVb7Wy7WyVzPp">
    <mxGraphModel dx="758" dy="1451" grid="0" gridSize="10" guides="1" tooltips="1" connect="1" arrows="1" fold="1" page="0" pageScale="1" pageWidth="827" pageHeight="1169" math="0" shadow="0">
      <root>
        <mxCell id="0" />
        <mxCell id="1" parent="0" />
        <mxCell id="pWIE1eiKw1UgQ77aIppx-1" value="As a user I want to be able to create an account and login so that I can create and edit recipes." style="rounded=0;whiteSpace=wrap;html=1;" parent="1" vertex="1">
          <mxGeometry x="20" y="-120" width="140" height="80" as="geometry" />
        </mxCell>
        <mxCell id="pWIE1eiKw1UgQ77aIppx-2" value="Actor" style="shape=umlActor;verticalLabelPosition=bottom;verticalAlign=top;html=1;outlineConnect=0;" parent="1" vertex="1">
          <mxGeometry x="180" y="-110" width="30" height="60" as="geometry" />
        </mxCell>
        <mxCell id="pWIE1eiKw1UgQ77aIppx-8" value="Click Login/Create Account button" style="ellipse;whiteSpace=wrap;html=1;" parent="1" vertex="1">
          <mxGeometry x="287" y="-120" width="120" height="80" as="geometry" />
        </mxCell>
        <mxCell id="pWIE1eiKw1UgQ77aIppx-9" value="" style="endArrow=none;html=1;rounded=0;entryX=0;entryY=0.5;entryDx=0;entryDy=0;" parent="1" target="pWIE1eiKw1UgQ77aIppx-8" edge="1">
          <mxGeometry width="50" height="50" relative="1" as="geometry">
            <mxPoint x="197" y="-81" as="sourcePoint" />
            <mxPoint x="280" y="-80" as="targetPoint" />
          </mxGeometry>
        </mxCell>
        <mxCell id="pWIE1eiKw1UgQ77aIppx-19" value="&amp;lt;&amp;lt;Extend&amp;gt;&amp;gt;" style="text;html=1;align=center;verticalAlign=middle;whiteSpace=wrap;rounded=0;rotation=0;" parent="1" vertex="1">
          <mxGeometry x="411" y="-110" width="60" height="30" as="geometry" />
        </mxCell>
        <mxCell id="-N3LWzp9jNuqIjSXiq-N-1" value="Check user details" style="ellipse;whiteSpace=wrap;html=1;" vertex="1" parent="1">
          <mxGeometry x="683" y="-120" width="120" height="80" as="geometry" />
        </mxCell>
        <mxCell id="-N3LWzp9jNuqIjSXiq-N-2" value="" style="endArrow=classic;html=1;rounded=0;entryX=0;entryY=0.5;entryDx=0;entryDy=0;exitX=1;exitY=0.5;exitDx=0;exitDy=0;" edge="1" parent="1" source="-N3LWzp9jNuqIjSXiq-N-3" target="-N3LWzp9jNuqIjSXiq-N-1">
          <mxGeometry width="50" height="50" relative="1" as="geometry">
            <mxPoint x="605" y="-77" as="sourcePoint" />
            <mxPoint x="659" y="-82" as="targetPoint" />
          </mxGeometry>
        </mxCell>
        <mxCell id="-N3LWzp9jNuqIjSXiq-N-3" value="Display login/create account fields" style="ellipse;whiteSpace=wrap;html=1;" vertex="1" parent="1">
          <mxGeometry x="485" y="-120" width="120" height="80" as="geometry" />
        </mxCell>
        <mxCell id="-N3LWzp9jNuqIjSXiq-N-4" value="" style="endArrow=classic;html=1;rounded=0;entryX=0;entryY=0.5;entryDx=0;entryDy=0;exitX=1;exitY=0.5;exitDx=0;exitDy=0;" edge="1" parent="1" source="pWIE1eiKw1UgQ77aIppx-8" target="-N3LWzp9jNuqIjSXiq-N-3">
          <mxGeometry width="50" height="50" relative="1" as="geometry">
            <mxPoint x="451" y="-80" as="sourcePoint" />
            <mxPoint x="537" y="-59" as="targetPoint" />
          </mxGeometry>
        </mxCell>
        <mxCell id="-N3LWzp9jNuqIjSXiq-N-8" value="&amp;lt;&amp;lt;Include&amp;gt;&amp;gt;" style="text;html=1;align=center;verticalAlign=middle;whiteSpace=wrap;rounded=0;rotation=0;" vertex="1" parent="1">
          <mxGeometry x="614" y="-110" width="60" height="30" as="geometry" />
        </mxCell>
        <mxCell id="-N3LWzp9jNuqIjSXiq-N-9" value="Login user if correct" style="ellipse;whiteSpace=wrap;html=1;" vertex="1" parent="1">
          <mxGeometry x="605" y="16" width="120" height="80" as="geometry" />
        </mxCell>
        <mxCell id="-N3LWzp9jNuqIjSXiq-N-11" value="" style="endArrow=classic;html=1;rounded=0;exitX=0.5;exitY=1;exitDx=0;exitDy=0;entryX=0.5;entryY=0;entryDx=0;entryDy=0;" edge="1" parent="1" source="-N3LWzp9jNuqIjSXiq-N-1" target="-N3LWzp9jNuqIjSXiq-N-9">
          <mxGeometry width="50" height="50" relative="1" as="geometry">
            <mxPoint x="680" y="119" as="sourcePoint" />
            <mxPoint x="730" y="69" as="targetPoint" />
          </mxGeometry>
        </mxCell>
        <mxCell id="-N3LWzp9jNuqIjSXiq-N-12" value="&amp;lt;&amp;lt;Include&amp;gt;&amp;gt;" style="text;html=1;align=center;verticalAlign=middle;whiteSpace=wrap;rounded=0;rotation=-45;" vertex="1" parent="1">
          <mxGeometry x="652" y="-32" width="60" height="30" as="geometry" />
        </mxCell>
      </root>
    </mxGraphModel>
  </diagram>
</mxfile>
